HIERARCHY
ROOT Hips
{
	OFFSET 0.000000 97.167313 0.000000
	CHANNELS 6 Xposition Yposition Zposition Xrotation Yrotation Zrotation
	JOINT Spine
	{
		OFFSET 0.000000 13.784798 0.064400
		CHANNELS 3 Xrotation Yrotation Zrotation
		JOINT Spine1
		{
			OFFSET 0.000000 12.037903 0.404700
			CHANNELS 3 Xrotation Yrotation Zrotation
			JOINT Spine2
			{
				OFFSET 0.000000 17.795601 0.420200
				CHANNELS 3 Xrotation Yrotation Zrotation
				JOINT Neck
				{
					OFFSET 0.000000 39.131302 11.954600
					CHANNELS 3 Xrotation Yrotation Zrotation
					JOINT Head
					{
						OFFSET 0.000000 14.456192 15.627699
						CHANNELS 3 Xrotation Yrotation Zrotation
						JOINT HeadTop_End
						{
							OFFSET 0.000000 15.703506 7.603401
							CHANNELS 3 Xrotation Yrotation Zrotation
							End Site
							{
								OFFSET 0.000000 17.447403 0.000000
							}
						}
					}
				}
				JOINT LeftShoulder
				{
					OFFSET 17.399500 24.608795 1.168800
					CHANNELS 3 Xrotation Yrotation Zrotation
					JOINT LeftArm
					{
						OFFSET 18.980635 5.765305 1.818600
						CHANNELS 3 Xrotation Yrotation Zrotation
						JOINT LeftForeArm
						{
							OFFSET 49.290169 0.000000 0.000000
							CHANNELS 3 Xrotation Yrotation Zrotation
							JOINT LeftHand
							{
								OFFSET 31.562012 0.000000 0.000000
								CHANNELS 3 Xrotation Yrotation Zrotation
								JOINT LeftHandThumb1
								{
									OFFSET 6.133995 -4.388519 7.076070
									CHANNELS 3 Xrotation Yrotation Zrotation
									JOINT LeftHandThumb2
									{
										OFFSET 6.037666 -3.485840 3.485847
										CHANNELS 3 Xrotation Yrotation Zrotation
										JOINT LeftHandThumb3
										{
											OFFSET 6.496506 -3.750763 3.750761
											CHANNELS 3 Xrotation Yrotation Zrotation
											JOINT LeftHandThumb4
											{
												OFFSET 5.616882 -3.242905 3.242910
												CHANNELS 3 Xrotation Yrotation Zrotation
												End Site
												{
													OFFSET -1.254608 7.132141 0.375429
												}
											}
										}
									}
								}
								JOINT LeftHandPinky1
								{
									OFFSET 18.920792 -0.453171 -11.426712
									CHANNELS 3 Xrotation Yrotation Zrotation
									JOINT LeftHandPinky2
									{
										OFFSET 4.919586 0.000000 0.000000
										CHANNELS 3 Xrotation Yrotation Zrotation
										JOINT LeftHandPinky3
										{
											OFFSET 5.233047 0.000000 0.000000
											CHANNELS 3 Xrotation Yrotation Zrotation
											JOINT LeftHandPinky4
											{
												OFFSET 5.571716 0.000000 0.000000
												CHANNELS 3 Xrotation Yrotation Zrotation
												End Site
												{
													OFFSET -3.459808 4.342407 -0.466164
												}
											}
										}
									}
								}
								JOINT LeftHandRing1
								{
									OFFSET 22.726120 -0.094986 -6.500475
									CHANNELS 3 Xrotation Yrotation Zrotation
									JOINT LeftHandRing2
									{
										OFFSET 6.408615 0.000000 0.000000
										CHANNELS 3 Xrotation Yrotation Zrotation
										JOINT LeftHandRing3
										{
											OFFSET 6.150223 0.000000 0.000000
											CHANNELS 3 Xrotation Yrotation Zrotation
											JOINT LeftHandRing4
											{
												OFFSET 6.145386 0.000000 0.000000
												CHANNELS 3 Xrotation Yrotation Zrotation
												End Site
												{
													OFFSET -3.671402 4.923981 -0.202372
												}
											}
										}
									}
								}
								JOINT LeftHandMiddle1
								{
									OFFSET 23.373947 0.000000 0.000001
									CHANNELS 3 Xrotation Yrotation Zrotation
									JOINT LeftHandMiddle2
									{
										OFFSET 6.996567 0.000000 0.000000
										CHANNELS 3 Xrotation Yrotation Zrotation
										JOINT LeftHandMiddle3
										{
											OFFSET 7.015945 0.000000 0.000000
											CHANNELS 3 Xrotation Yrotation Zrotation
											JOINT LeftHandMiddle4
											{
												OFFSET 7.721573 0.000000 0.000000
												CHANNELS 3 Xrotation Yrotation Zrotation
												End Site
												{
													OFFSET -4.651108 6.158463 0.251582
												}
											}
										}
									}
								}
								JOINT LeftHandIndex1
								{
									OFFSET 21.310577 -0.490082 6.209344
									CHANNELS 3 Xrotation Yrotation Zrotation
									JOINT LeftHandIndex2
									{
										OFFSET 7.536453 0.000000 0.000000
										CHANNELS 3 Xrotation Yrotation Zrotation
										JOINT LeftHandIndex3
										{
											OFFSET 7.512344 0.000000 0.000000
											CHANNELS 3 Xrotation Yrotation Zrotation
											JOINT LeftHandIndex4
											{
												OFFSET 10.212402 0.000000 0.000001
												CHANNELS 3 Xrotation Yrotation Zrotation
												End Site
												{
													OFFSET -5.180801 8.690506 1.388433
												}
											}
										}
									}
								}
							}
						}
					}
				}
				JOINT RightShoulder
				{
					OFFSET -17.399500 24.608795 1.168800
					CHANNELS 3 Xrotation Yrotation Zrotation
					JOINT RightArm
					{
						OFFSET -18.980635 5.765305 1.818600
						CHANNELS 3 Xrotation Yrotation Zrotation
						JOINT RightForeArm
						{
							OFFSET -49.290169 0.000000 0.000000
							CHANNELS 3 Xrotation Yrotation Zrotation
							JOINT RightHand
							{
								OFFSET -31.562012 0.000000 0.000000
								CHANNELS 3 Xrotation Yrotation Zrotation
								JOINT RightHandThumb1
								{
									OFFSET -6.133995 -4.388519 7.076070
									CHANNELS 3 Xrotation Yrotation Zrotation
									JOINT RightHandThumb2
									{
										OFFSET -6.037666 -3.485840 3.485847
										CHANNELS 3 Xrotation Yrotation Zrotation
										JOINT RightHandThumb3
										{
											OFFSET -6.496506 -3.750763 3.750761
											CHANNELS 3 Xrotation Yrotation Zrotation
											JOINT RightHandThumb4
											{
												OFFSET -5.616882 -3.242905 3.242910
												CHANNELS 3 Xrotation Yrotation Zrotation
												End Site
												{
													OFFSET 1.254608 7.132141 0.375429
												}
											}
										}
									}
								}
								JOINT RightHandIndex1
								{
									OFFSET -21.310577 -0.490082 6.209344
									CHANNELS 3 Xrotation Yrotation Zrotation
									JOINT RightHandIndex2
									{
										OFFSET -7.536453 0.000000 0.000000
										CHANNELS 3 Xrotation Yrotation Zrotation
										JOINT RightHandIndex3
										{
											OFFSET -7.512344 0.000000 0.000000
											CHANNELS 3 Xrotation Yrotation Zrotation
											JOINT RightHandIndex4
											{
												OFFSET -10.212402 0.000000 0.000001
												CHANNELS 3 Xrotation Yrotation Zrotation
												End Site
												{
													OFFSET 5.180801 8.690506 1.388433
												}
											}
										}
									}
								}
								JOINT RightHandMiddle1
								{
									OFFSET -23.373947 0.000000 0.000001
									CHANNELS 3 Xrotation Yrotation Zrotation
									JOINT RightHandMiddle2
									{
										OFFSET -6.996567 0.000000 0.000000
										CHANNELS 3 Xrotation Yrotation Zrotation
										JOINT RightHandMiddle3
										{
											OFFSET -7.015945 0.000000 0.000000
											CHANNELS 3 Xrotation Yrotation Zrotation
											JOINT RightHandMiddle4
											{
												OFFSET -7.721573 0.000000 0.000000
												CHANNELS 3 Xrotation Yrotation Zrotation
												End Site
												{
													OFFSET 4.651108 6.158463 0.251582
												}
											}
										}
									}
								}
								JOINT RightHandRing1
								{
									OFFSET -22.726120 -0.094986 -6.500475
									CHANNELS 3 Xrotation Yrotation Zrotation
									JOINT RightHandRing2
									{
										OFFSET -6.408615 0.000000 0.000000
										CHANNELS 3 Xrotation Yrotation Zrotation
										JOINT RightHandRing3
										{
											OFFSET -6.150223 0.000000 0.000000
											CHANNELS 3 Xrotation Yrotation Zrotation
											JOINT RightHandRing4
											{
												OFFSET -6.145386 0.000000 0.000000
												CHANNELS 3 Xrotation Yrotation Zrotation
												End Site
												{
													OFFSET 3.671402 4.923981 -0.202372
												}
											}
										}
									}
								}
								JOINT RightHandPinky1
								{
									OFFSET -18.920792 -0.453171 -11.426712
									CHANNELS 3 Xrotation Yrotation Zrotation
									JOINT RightHandPinky2
									{
										OFFSET -4.919586 0.000000 0.000000
										CHANNELS 3 Xrotation Yrotation Zrotation
										JOINT RightHandPinky3
										{
											OFFSET -5.233047 0.000000 0.000000
											CHANNELS 3 Xrotation Yrotation Zrotation
											JOINT RightHandPinky4
											{
												OFFSET -5.571716 0.000000 0.000000
												CHANNELS 3 Xrotation Yrotation Zrotation
												End Site
												{
													OFFSET 3.459808 4.342407 -0.466164
												}
											}
										}
									}
								}
							}
						}
					}
				}
			}
		}
	}
	JOINT LeftUpLeg
	{
		OFFSET 19.899099 -7.885101 -3.429500
		CHANNELS 3 Xrotation Yrotation Zrotation
		JOINT LeftLeg
		{
			OFFSET 1.745560 -36.997807 10.304700
			CHANNELS 3 Xrotation Yrotation Zrotation
			JOINT LeftFoot
			{
				OFFSET -1.745558 -29.803308 -13.615400
				CHANNELS 3 Xrotation Yrotation Zrotation
				JOINT LeftToeBase
				{
					OFFSET 1.181900 -18.539904 15.226099
					CHANNELS 3 Xrotation Yrotation Zrotation
					JOINT LeftToe_End
					{
						OFFSET -0.863701 1.402801 16.534700
						CHANNELS 3 Xrotation Yrotation Zrotation
						End Site
						{
							OFFSET 0.000000 16.616566 0.000000
						}
					}
				}
			}
		}
	}
	JOINT RightUpLeg
	{
		OFFSET -19.899099 -7.885101 -3.429500
		CHANNELS 3 Xrotation Yrotation Zrotation
		JOINT RightLeg
		{
			OFFSET -1.745560 -36.997807 10.304700
			CHANNELS 3 Xrotation Yrotation Zrotation
			JOINT RightFoot
			{
				OFFSET 1.745558 -29.803308 -13.615400
				CHANNELS 3 Xrotation Yrotation Zrotation
				JOINT RightToeBase
				{
					OFFSET -1.181900 -18.539904 15.226099
					CHANNELS 3 Xrotation Yrotation Zrotation
					JOINT RightToe_End
					{
						OFFSET 0.863701 1.402801 16.534700
						CHANNELS 3 Xrotation Yrotation Zrotation
						End Site
						{
							OFFSET 0.000000 16.616566 0.000000
						}
					}
				}
			}
		}
	}
}
MOTION
Frames: 6
Frame Time: 0.033333
1.269297 78.858170 3.336025 3.668679 -26.174530 0.759178 20.292811 -2.704564 6.126817 5.503347 -1.158565 0.103612 0.214632 0.580097 1.704612 -18.289529 3.647840 -7.060194 -1.119166 21.772519 -0.720371 0.000000 0.000000 -0.000000 6.207778 -20.160024 5.956847 -24.768460 -8.739685 -77.574837 -1.713152 -63.774357 -11.832136 -40.571416 5.787721 14.264980 -7.471942 1.860690 -7.166912 30.987045 27.310498 -4.510898 83.254644 13.297939 -10.940302 0.000002 -0.000000 -0.000002 -17.080790 22.136846 -87.150106 0.011721 0.023172 -58.127280 0.004933 0.007737 -26.297167 0.000002 0.000002 -0.000005 -6.436874 23.133434 -89.739827 0.012869 0.975927 -51.002983 6.771109 8.412941 -40.136992 0.000000 0.000001 0.000003 1.623344 16.580938 -84.691279 0.018011 0.022032 -72.884874 -1.296727 -0.092190 -19.943290 0.000000 -0.000002 0.000002 -4.707167 11.366725 -75.716540 -0.816399 3.074002 -46.874632 -4.740632 0.379127 -78.699489 -0.000003 -0.000000 -0.000001 10.507676 31.794845 -28.576591 -41.870180 17.948723 81.685463 -3.221489 52.180067 -5.394800 -27.246803 9.832552 16.710548 9.347182 2.810566 -11.364508 16.169097 -43.265997 15.843585 32.491770 -44.566786 5.661136 -0.000002 0.000001 -0.000000 17.076788 -0.396526 31.924352 -0.204382 -0.284212 112.811557 1.553134 -1.173010 33.344546 -0.000000 -0.000005 -0.000002 9.205481 -5.035905 102.738087 0.014998 -0.019194 61.018506 1.871344 0.346194 31.443773 -0.000000 0.000000 -0.000004 5.569146 -8.935224 107.329108 0.547966 -0.005787 41.263714 0.739137 0.837833 51.122228 -0.000001 -0.000001 -0.000003 6.511225 -17.148211 98.228024 0.007392 -0.015732 43.845764 0.011240 -0.024785 57.754556 -0.000000 -0.000000 0.000002 -37.986995 3.097093 13.073847 76.721234 3.654057 -2.932763 -2.844878 0.675140 -3.338621 -16.540090 0.149827 -6.529513 0.000001 0.000000 0.000000 -33.682077 -6.347101 2.232497 53.251703 -4.541588 3.510087 -21.257716 1.079509 -5.768151 -2.284855 1.714936 0.012985 0.000000 0.000001 -0.000000 
0.899318 79.892639 6.689967 4.121177 -27.524283 1.652802 20.636793 -2.398255 4.734994 5.481715 -0.979458 -0.013683 0.191305 0.766509 1.600740 -18.361389 3.532947 -6.723785 -1.409549 21.985395 -0.755570 -0.000000 -0.000000 -0.000000 6.235529 -19.719289 5.979135 -25.028205 -8.916472 -77.694563 -1.655695 -63.382721 -11.661396 -40.519544 5.438599 13.835011 -7.471938 1.860687 -7.166912 30.987042 27.310503 -4.510899 83.254637 13.297939 -10.940304 -0.000001 -0.000000 0.000001 -17.080790 22.136848 -87.150106 0.011716 0.023174 -58.127280 0.004934 0.007737 -26.297171 -0.000003 0.000002 0.000001 -6.436875 23.133434 -89.739827 0.012867 0.975929 -51.002983 6.771114 8.412937 -40.136992 -0.000002 0.000001 -0.000000 1.623347 16.580940 -84.691279 0.018015 0.022032 -72.884874 -1.296727 -0.092190 -19.943288 -0.000004 -0.000002 0.000004 -4.707162 11.366725 -75.716540 -0.816397 3.073999 -46.874639 -4.740627 0.379126 -78.699489 -0.000005 0.000003 0.000002 10.590836 31.853267 -28.873242 -42.402019 18.199560 81.989236 -3.230556 51.624991 -5.562206 -27.135771 10.100876 16.714820 9.347184 2.810567 -11.364510 16.169095 -43.265994 15.843589 32.491770 -44.566786 5.661130 0.000000 -0.000001 0.000001 17.076786 -0.396527 31.924352 -0.204382 -0.284211 112.811557 1.553133 -1.173011 33.344550 -0.000000 -0.000001 -0.000001 9.205481 -5.035907 102.738087 0.014997 -0.019194 61.018506 1.871342 0.346191 31.443773 0.000001 0.000001 0.000003 5.569150 -8.935222 107.329108 0.547964 -0.005784 41.263714 0.739137 0.837838 51.122228 0.000001 -0.000002 -0.000003 6.511227 -17.148208 98.228017 0.007389 -0.015731 43.845764 0.011238 -0.024787 57.754550 0.000003 0.000000 0.000000 -40.980537 0.787892 14.055337 71.705949 6.481653 -2.529005 -5.230888 0.758482 -2.728833 -7.869713 -1.088814 -8.145207 -0.000001 -0.000001 -0.000000 -30.732183 -6.033129 0.993989 52.029519 -2.657481 3.069116 -22.945257 0.899643 -5.201547 -2.663118 1.735945 0.144275 -0.000000 -0.000002 0.000000 
0.606836 80.735748 9.891212 4.586648 -29.020408 2.415535 21.049685 -1.974710 3.628875 5.456873 -0.779494 -0.121625 0.172461 0.980733 1.509385 -18.336374 3.466353 -6.573036 -1.871669 22.138347 -0.736036 -0.000001 0.000000 -0.000000 6.249619 -19.436053 5.806741 -25.285202 -9.057294 -77.570014 -1.683284 -63.384360 -11.344417 -40.741115 5.429625 13.407340 -7.471938 1.860689 -7.166914 30.987042 27.310499 -4.510897 83.254637 13.297940 -10.940302 0.000005 -0.000000 -0.000001 -17.080790 22.136846 -87.150113 0.011717 0.023169 -58.127280 0.004930 0.007740 -26.297173 -0.000002 0.000002 -0.000002 -6.436875 23.133437 -89.739827 0.012867 0.975933 -51.002986 6.771117 8.412940 -40.136995 -0.000004 0.000001 0.000002 1.623346 16.580940 -84.691279 0.018013 0.022025 -72.884874 -1.296731 -0.092192 -19.943287 0.000002 -0.000001 0.000004 -4.707164 11.366724 -75.716540 -0.816400 3.074003 -46.874635 -4.740630 0.379129 -78.699482 -0.000002 0.000001 0.000001 10.673987 31.913909 -29.168261 -43.121464 18.557144 82.148488 -3.263481 51.149535 -5.854620 -26.941365 9.887172 16.744649 9.347180 2.810569 -11.364505 16.169100 -43.265987 15.843583 32.491773 -44.566790 5.661132 0.000000 0.000001 0.000002 17.076788 -0.396526 31.924359 -0.204386 -0.284215 112.811557 1.553135 -1.173010 33.344546 -0.000001 0.000000 0.000004 9.205483 -5.035904 102.738094 0.014996 -0.019195 61.018513 1.871344 0.346196 31.443770 -0.000001 -0.000000 -0.000009 5.569148 -8.935225 107.329115 0.547966 -0.005788 41.263707 0.739133 0.837837 51.122224 -0.000001 -0.000001 -0.000002 6.511225 -17.148209 98.228031 0.007396 -0.015733 43.845764 0.011237 -0.024783 57.754550 0.000001 0.000005 0.000003 -43.934133 -0.272811 14.620365 65.076895 7.021369 -1.462845 -6.482874 0.511082 -1.226706 -3.207787 -1.691178 1.122657 -0.000000 0.000001 0.000002 -28.070659 -5.737683 -0.007398 50.851281 -1.029036 2.520102 -24.556058 0.807471 -4.992862 -2.530946 1.705143 0.648942 -0.000000 -0.000003 -0.000000 
0.473882 81.310333 13.145043 4.968606 -30.443905 2.991222 21.540260 -1.503232 2.663196 5.428806 -0.569512 -0.198602 0.149643 1.200434 1.444626 -18.317649 3.457311 -6.519506 -2.279892 22.298332 -0.666386 0.000001 -0.000000 -0.000000 6.260706 -19.190270 5.595193 -25.533216 -9.200693 -77.546792 -1.735210 -63.747767 -11.168195 -40.811695 5.637425 13.326814 -7.471938 1.860692 -7.166912 30.987042 27.310499 -4.510899 83.254644 13.297938 -10.940303 -0.000003 -0.000000 -0.000002 -17.080790 22.136850 -87.150106 0.011716 0.023171 -58.127280 0.004934 0.007740 -26.297171 0.000001 0.000001 -0.000004 -6.436878 23.133439 -89.739827 0.012868 0.975932 -51.002990 6.771112 8.412937 -40.136995 0.000001 0.000001 0.000002 1.623345 16.580938 -84.691279 0.018011 0.022031 -72.884867 -1.296729 -0.092190 -19.943282 -0.000000 0.000000 0.000001 -4.707161 11.366729 -75.716540 -0.816402 3.074002 -46.874635 -4.740628 0.379126 -78.699482 -0.000000 0.000001 0.000002 10.761795 31.966221 -29.471453 -43.247354 18.629500 82.034615 -3.302134 51.641462 -6.068193 -26.722212 9.347361 16.646979 9.347186 2.810569 -11.364508 16.169098 -43.265994 15.843585 32.491770 -44.566786 5.661131 0.000002 0.000001 -0.000001 17.076788 -0.396523 31.924355 -0.204381 -0.284212 112.811564 1.553133 -1.173012 33.344546 -0.000000 -0.000003 0.000001 9.205479 -5.035904 102.738087 0.014996 -0.019195 61.018513 1.871342 0.346195 31.443773 0.000000 -0.000001 -0.000007 5.569148 -8.935224 107.329108 0.547963 -0.005784 41.263707 0.739134 0.837839 51.122228 -0.000001 -0.000002 -0.000003 6.511225 -17.148211 98.228017 0.007393 -0.015734 43.845764 0.011238 -0.024785 57.754550 -0.000001 -0.000003 0.000004 -46.047786 -1.463754 14.981156 56.828875 5.230959 -0.286674 -6.813781 0.416912 -0.984911 -2.294790 -1.105553 0.720944 -0.000000 0.000002 0.000001 -25.603801 -5.446233 -1.036779 50.063162 0.229181 1.874846 -26.203415 0.679100 -4.751435 -2.852086 1.755955 0.843087 0.000000 0.000002 -0.000000 
0.429160 81.532188 16.321732 5.132428 -31.783688 3.258175 22.092658 -0.894342 1.874899 5.388840 -0.333681 -0.235070 0.111718 1.440249 1.421541 -18.389188 3.491746 -6.513793 -2.500655 22.484976 -0.521198 0.000000 -0.000000 0.000000 6.269400 -18.963885 5.374084 -25.822744 -9.364731 -77.406759 -1.746452 -64.169832 -11.266990 -40.698526 5.984951 13.477033 -7.471939 1.860689 -7.166906 30.987045 27.310494 -4.510896 83.254637 13.297939 -10.940303 0.000005 0.000001 0.000000 -17.080789 22.136848 -87.150106 0.011717 0.023174 -58.127280 0.004931 0.007740 -26.297173 0.000001 0.000001 -0.000004 -6.436875 23.133436 -89.739827 0.012867 0.975931 -51.002986 6.771114 8.412937 -40.136992 -0.000001 0.000003 0.000000 1.623344 16.580940 -84.691272 0.018012 0.022033 -72.884874 -1.296731 -0.092190 -19.943290 0.000001 0.000001 0.000004 -4.707165 11.366725 -75.716540 -0.816400 3.074000 -46.874632 -4.740632 0.379124 -78.699489 -0.000002 0.000005 0.000002 10.861859 31.992732 -29.799163 -42.967798 18.510632 81.710550 -3.347480 52.567680 -6.070491 -26.805342 8.992456 16.296264 9.347183 2.810565 -11.364511 16.169100 -43.265990 15.843587 32.491784 -44.566793 5.661131 -0.000002 -0.000002 -0.000001 17.076789 -0.396526 31.924355 -0.204384 -0.284214 112.811557 1.553134 -1.173011 33.344550 -0.000000 -0.000003 0.000001 9.205483 -5.035907 102.738094 0.014998 -0.019195 61.018513 1.871343 0.346193 31.443773 0.000002 0.000000 -0.000009 5.569149 -8.935224 107.329108 0.547968 -0.005788 41.263707 0.739132 0.837838 51.122224 0.000001 -0.000000 -0.000005 6.511227 -17.148213 98.228017 0.007397 -0.015737 43.845764 0.011242 -0.024787 57.754550 -0.000000 -0.000001 0.000004 -46.898039 -3.403708 15.834974 47.814142 3.747550 0.699358 -5.896584 0.780261 -2.601217 -2.449916 -0.904643 0.850121 0.000001 -0.000000 -0.000001 -23.087518 -5.182995 -2.061336 49.558510 1.318426 1.280934 -28.188718 0.518324 -4.377823 -3.196453 1.764078 0.738546 -0.000000 -0.000006 -0.000000 
0.379899 81.618538 19.200720 5.031012 -33.153161 3.229517 22.638343 -0.091399 1.297865 5.328929 -0.062446 -0.226367 0.050329 1.708540 1.448572 -18.520073 3.539340 -6.557283 -2.532595 22.641684 -0.340723 0.000001 -0.000000 0.000000 6.275381 -18.763834 5.184426 -26.316622 -9.660273 -77.618475 -1.793566 -63.744393 -10.948840 -40.035345 6.180760 13.073826 -7.471943 1.860684 -7.166911 30.987042 27.310501 -4.510899 83.254637 13.297939 -10.940305 0.000002 0.000001 0.000000 -17.080787 22.136845 -87.150106 0.011720 0.023174 -58.127280 0.004931 0.007740 -26.297169 0.000001 0.000003 -0.000007 -6.436877 23.133434 -89.739827 0.012866 0.975932 -51.002986 6.771111 8.412944 -40.136989 -0.000003 -0.000001 0.000005 1.623343 16.580938 -84.691279 0.018014 0.022030 -72.884867 -1.296731 -0.092190 -19.943287 0.000001 0.000000 0.000004 -4.707166 11.366724 -75.716540 -0.816402 3.074003 -46.874632 -4.740629 0.379126 -78.699489 -0.000001 -0.000000 -0.000001 10.957250 31.958445 -30.092591 -42.826317 18.479459 81.277236 -3.368253 52.696764 -5.714523 -27.255376 9.419026 15.874015 9.347184 2.810565 -11.364506 16.169097 -43.265994 15.843587 32.491773 -44.566797 5.661134 0.000001 0.000001 0.000001 17.076788 -0.396528 31.924352 -0.204381 -0.284209 112.811564 1.553135 -1.173008 33.344546 -0.000001 -0.000001 0.000001 9.205484 -5.035907 102.738094 0.014995 -0.019194 61.018513 1.871342 0.346194 31.443773 -0.000000 -0.000000 -0.000004 5.569149 -8.935224 107.329108 0.547968 -0.005788 41.263714 0.739134 0.837836 51.122224 -0.000002 -0.000001 -0.000007 6.511228 -17.148209 98.228017 0.007391 -0.015731 43.845764 0.011235 -0.024784 57.754550 0.000000 0.000002 0.000001 -46.524865 -4.215369 16.877592 39.090057 3.309378 1.562504 -6.065943 0.908072 -2.040007 -3.420861 -1.507165 1.422018 0.000000 0.000001 -0.000000 -20.384734 -5.082432 -2.820936 48.872538 2.095908 0.643061 -30.305433 0.490334 -4.219545 -3.252281 1.743360 0.536242 -0.000000 0.000002 0.000000 
